<svg id="Capa_1" enable-background="new 0 0 512 512" height="512" viewBox="0 0 512 512" width="512" xmlns="http://www.w3.org/2000/svg" xmlns:xlink="http://www.w3.org/1999/xlink"><linearGradient id="SVGID_1_" gradientUnits="userSpaceOnUse" x1="256" x2="256" y1="512" y2="29"><stop offset="0" stop-color="#5558ff"/><stop offset="1" stop-color="#00c0ff"/></linearGradient><linearGradient id="SVGID_2_" gradientUnits="userSpaceOnUse" x1="256" x2="256" y1="271" y2="0"><stop offset="0" stop-color="#addcff"/><stop offset=".5028" stop-color="#eaf6ff"/><stop offset="1" stop-color="#eaf6ff"/></linearGradient><g><g><g><path d="m477 29h-441l-36 92v105c0 24.81 20.19 45 45 45h76l23-17h7.149c-.088.656-.149 1.32-.149 2v17.574c0 23.649-9.333 46.546-25.606 62.82-5.858 5.858-5.858 15.355 0 21.213 5.857 5.858 15.355 5.858 21.213 0 21.857-21.858 34.393-52.487 34.393-84.033v-17.574c0-.68-.061-1.344-.149-2h60.297c-.088.656-.149 1.32-.149 2v91c0 8.284 6.716 15 15 15s15-6.716 15-15v-91c0-.68-.061-1.344-.149-2h60.297c-.088.656-.149 1.32-.149 2v17.574c0 31.547 12.536 62.176 34.394 84.033 5.857 5.858 15.355 5.858 21.213 0s5.858-15.355 0-21.213c-16.272-16.274-25.605-39.171-25.605-62.82v-17.574c0-.68-.061-1.344-.149-2h8.149l22 17h76c24.81 0 45-20.19 45-45v-105zm10.961 363c-4.142-7.175-13.316-9.632-20.49-5.49l-16.471 9.509v-19.019c0-8.284-6.716-15-15-15s-15 6.716-15 15v19.019l-16.471-9.509c-7.175-4.143-16.349-1.684-20.49 5.49-4.143 7.174-1.685 16.348 5.49 20.49l16.471 9.51-16.471 9.51c-7.175 4.142-9.633 13.316-5.49 20.49 4.155 7.197 13.336 9.62 20.49 5.49l16.471-9.509v19.019c0 8.284 6.716 15 15 15s15-6.716 15-15v-19.019l16.471 9.509c7.149 4.128 16.333 1.709 20.49-5.49 4.143-7.174 1.685-16.348-5.49-20.49l-16.471-9.51 16.471-9.51c7.175-4.142 9.633-13.316 5.49-20.49zm-360 0c-4.142-7.174-13.315-9.632-20.49-5.49l-16.471 9.509v-19.019c0-8.284-6.716-15-15-15s-15 6.716-15 15v19.019l-16.471-9.51c-7.175-4.142-16.349-1.684-20.49 5.49-4.142 7.174-1.684 16.348 5.49 20.49l16.471 9.511-16.471 9.51c-7.174 4.142-9.632 13.316-5.49 20.49 4.163 7.21 13.35 9.613 20.49 5.49l16.471-9.509v19.019c0 8.284 6.716 15 15 15s15-6.716 15-15v-19.019l16.471 9.51c7.15 4.128 16.335 1.708 20.49-5.49 4.142-7.174 1.684-16.348-5.49-20.49l-16.471-9.511 16.471-9.51c7.175-4.142 9.633-13.316 5.49-20.49zm180 30c-4.143-7.175-13.315-9.632-20.49-5.49l-16.471 9.509v-19.019c0-8.284-6.716-15-15-15s-15 6.716-15 15v19.019l-16.471-9.51c-7.175-4.143-16.349-1.684-20.49 5.49-4.142 7.174-1.684 16.348 5.49 20.49l16.471 9.511-16.471 9.51c-7.174 4.142-9.632 13.316-5.49 20.49 4.163 7.21 13.35 9.613 20.49 5.49l16.471-9.51v19.02c0 8.284 6.716 15 15 15s15-6.716 15-15v-19.019l16.471 9.509c7.149 4.128 16.333 1.709 20.49-5.49 4.143-7.174 1.685-16.348-5.49-20.49l-16.472-9.51 16.471-9.51c7.176-4.142 9.634-13.316 5.491-20.49z" fill="url(#SVGID_1_)"/></g></g><g><g><path d="m467 0h-422c-24.81 0-45 20.19-45 45v76h512v-76c0-24.81-20.19-45-45-45zm-391 91c-8.284 0-15-6.716-15-15s6.716-15 15-15 15 6.716 15 15-6.716 15-15 15zm300 90h-240c-8.28 0-15 6.72-15 15v75h270v-75c0-8.28-6.72-15-15-15z" fill="url(#SVGID_2_)"/></g></g></g></svg>